<svg width="126" height="126" viewBox="0 0 126 126" fill="none" xmlns="http://www.w3.org/2000/svg">
<g filter="url(#filter0_d_2_160)">
<circle cx="63" cy="51" r="39" fill="#2AA3EF"/>
<path fill-rule="evenodd" clip-rule="evenodd" d="M79 41.0775C77.8234 41.5994 76.5564 41.9523 75.2292 42.112C76.5847 41.2985 77.6257 40.0133 78.1152 38.481C76.8463 39.2332 75.4419 39.7793 73.9453 40.0727C72.748 38.7968 71.0424 38 69.1541 38C65.5283 38 62.5877 40.9382 62.5877 44.5636C62.5877 45.0799 62.648 45.5795 62.759 46.0606C57.3033 45.7876 52.467 43.1725 49.229 39.2017C48.6623 40.1712 48.3404 41.2985 48.3404 42.502C48.3404 44.7791 49.5001 46.7886 51.2603 47.9643C50.1834 47.9309 49.1706 47.6355 48.2877 47.1434C48.2877 47.1712 48.2877 47.1991 48.2877 47.2269C48.2877 50.4066 50.5487 53.0588 53.5532 53.6624C53.0016 53.8128 52.4237 53.8927 51.8232 53.8927C51.4015 53.8927 50.9892 53.8518 50.5882 53.7738C51.424 56.3815 53.8488 58.2796 56.7216 58.3335C54.4738 60.0923 51.6424 61.1417 48.5663 61.1417C48.0373 61.1417 47.5139 61.1119 47 61.0506C49.9048 62.9135 53.3556 64 57.0642 64C69.1391 64 75.7431 53.9986 75.7431 45.3251C75.7431 45.0391 75.7356 44.7586 75.7243 44.4763C77.0064 43.5514 78.1208 42.3943 79 41.0794V41.0775Z" fill="white"/>
</g>
<defs>
<filter id="filter0_d_2_160" x="0" y="0" width="126" height="126" filterUnits="userSpaceOnUse" color-interpolation-filters="sRGB">
<feFlood flood-opacity="0" result="BackgroundImageFix"/>
<feColorMatrix in="SourceAlpha" type="matrix" values="0 0 0 0 0 0 0 0 0 0 0 0 0 0 0 0 0 0 127 0" result="hardAlpha"/>
<feOffset dy="12"/>
<feGaussianBlur stdDeviation="12"/>
<feColorMatrix type="matrix" values="0 0 0 0 0 0 0 0 0 0 0 0 0 0 0 0 0 0 0.1 0"/>
<feBlend mode="normal" in2="BackgroundImageFix" result="effect1_dropShadow_2_160"/>
<feBlend mode="normal" in="SourceGraphic" in2="effect1_dropShadow_2_160" result="shape"/>
</filter>
</defs>
</svg>
